<mxfile host="Electron" modified="2023-08-21T14:38:45.259Z" agent="Mozilla/5.0 (Windows NT 10.0; Win64; x64) AppleWebKit/537.36 (KHTML, like Gecko) draw.io/21.2.8 Chrome/112.0.5615.165 Electron/24.2.0 Safari/537.36" etag="Zy1uYX5xa_25MnVSdjDe" version="21.2.8" type="device">
  <diagram id="R2lEEEUBdFMjLlhIrx00" name="Page-1">
    <mxGraphModel dx="2284" dy="884" grid="1" gridSize="10" guides="1" tooltips="1" connect="1" arrows="1" fold="1" page="1" pageScale="1" pageWidth="850" pageHeight="1100" math="0" shadow="0" extFonts="Permanent Marker^https://fonts.googleapis.com/css?family=Permanent+Marker">
      <root>
        <mxCell id="0" />
        <mxCell id="1" parent="0" />
        <mxCell id="tw4gPYHvXtGm7aBOc0MK-12" style="edgeStyle=orthogonalEdgeStyle;rounded=0;orthogonalLoop=1;jettySize=auto;html=1;exitX=0.5;exitY=0;exitDx=0;exitDy=0;entryX=1;entryY=0.5;entryDx=0;entryDy=0;" parent="1" source="tw4gPYHvXtGm7aBOc0MK-2" target="tw4gPYHvXtGm7aBOc0MK-9" edge="1">
          <mxGeometry relative="1" as="geometry">
            <Array as="points">
              <mxPoint x="-220" y="580" />
              <mxPoint x="-220" y="380" />
            </Array>
          </mxGeometry>
        </mxCell>
        <mxCell id="tw4gPYHvXtGm7aBOc0MK-13" style="edgeStyle=orthogonalEdgeStyle;rounded=0;orthogonalLoop=1;jettySize=auto;html=1;exitX=0.75;exitY=0;exitDx=0;exitDy=0;entryX=0;entryY=0.5;entryDx=0;entryDy=0;" parent="1" source="tw4gPYHvXtGm7aBOc0MK-2" target="tw4gPYHvXtGm7aBOc0MK-4" edge="1">
          <mxGeometry relative="1" as="geometry" />
        </mxCell>
        <mxCell id="tw4gPYHvXtGm7aBOc0MK-16" style="edgeStyle=orthogonalEdgeStyle;rounded=0;orthogonalLoop=1;jettySize=auto;html=1;entryX=1;entryY=0.5;entryDx=0;entryDy=0;" parent="1" source="tw4gPYHvXtGm7aBOc0MK-2" target="tw4gPYHvXtGm7aBOc0MK-6" edge="1">
          <mxGeometry relative="1" as="geometry" />
        </mxCell>
        <mxCell id="tw4gPYHvXtGm7aBOc0MK-18" style="edgeStyle=orthogonalEdgeStyle;rounded=0;orthogonalLoop=1;jettySize=auto;html=1;entryX=0;entryY=0.5;entryDx=0;entryDy=0;" parent="1" source="tw4gPYHvXtGm7aBOc0MK-2" target="tw4gPYHvXtGm7aBOc0MK-11" edge="1">
          <mxGeometry relative="1" as="geometry" />
        </mxCell>
        <mxCell id="tw4gPYHvXtGm7aBOc0MK-2" value="clase" style="rounded=0;whiteSpace=wrap;html=1;fillColor=#f5f5f5;strokeColor=#666666;fontColor=#333333;" parent="1" vertex="1">
          <mxGeometry x="-280" y="580" width="180" height="80" as="geometry" />
        </mxCell>
        <mxCell id="tw4gPYHvXtGm7aBOc0MK-3" value="cliente" style="rounded=0;whiteSpace=wrap;html=1;fillColor=#f5f5f5;strokeColor=#666666;fontColor=#333333;" parent="1" vertex="1">
          <mxGeometry x="80" y="400" width="180" height="80" as="geometry" />
        </mxCell>
        <mxCell id="tw4gPYHvXtGm7aBOc0MK-15" style="edgeStyle=orthogonalEdgeStyle;rounded=0;orthogonalLoop=1;jettySize=auto;html=1;entryX=0;entryY=0.5;entryDx=0;entryDy=0;" parent="1" source="tw4gPYHvXtGm7aBOc0MK-4" target="tw4gPYHvXtGm7aBOc0MK-3" edge="1">
          <mxGeometry relative="1" as="geometry" />
        </mxCell>
        <mxCell id="tw4gPYHvXtGm7aBOc0MK-4" value="tiene" style="rhombus;whiteSpace=wrap;html=1;fillColor=#f5f5f5;strokeColor=#666666;fontColor=#333333;" parent="1" vertex="1">
          <mxGeometry x="-90" y="400" width="80" height="80" as="geometry" />
        </mxCell>
        <mxCell id="tw4gPYHvXtGm7aBOc0MK-26" style="edgeStyle=orthogonalEdgeStyle;rounded=0;orthogonalLoop=1;jettySize=auto;html=1;entryX=0.5;entryY=0;entryDx=0;entryDy=0;" parent="1" source="tw4gPYHvXtGm7aBOc0MK-5" target="tw4gPYHvXtGm7aBOc0MK-24" edge="1">
          <mxGeometry relative="1" as="geometry" />
        </mxCell>
        <mxCell id="tw4gPYHvXtGm7aBOc0MK-31" style="edgeStyle=orthogonalEdgeStyle;rounded=0;orthogonalLoop=1;jettySize=auto;html=1;entryX=0.5;entryY=1;entryDx=0;entryDy=0;" parent="1" source="tw4gPYHvXtGm7aBOc0MK-5" target="tw4gPYHvXtGm7aBOc0MK-29" edge="1">
          <mxGeometry relative="1" as="geometry" />
        </mxCell>
        <mxCell id="tw4gPYHvXtGm7aBOc0MK-37" style="edgeStyle=orthogonalEdgeStyle;rounded=0;orthogonalLoop=1;jettySize=auto;html=1;exitX=0.75;exitY=0;exitDx=0;exitDy=0;entryX=0.5;entryY=1;entryDx=0;entryDy=0;" parent="1" source="tw4gPYHvXtGm7aBOc0MK-5" target="tw4gPYHvXtGm7aBOc0MK-34" edge="1">
          <mxGeometry relative="1" as="geometry">
            <mxPoint x="-150" y="270" as="targetPoint" />
          </mxGeometry>
        </mxCell>
        <mxCell id="tw4gPYHvXtGm7aBOc0MK-5" value="tipo clase" style="rounded=0;whiteSpace=wrap;html=1;fillColor=#f5f5f5;strokeColor=#666666;fontColor=#333333;" parent="1" vertex="1">
          <mxGeometry x="-660" y="340" width="180" height="80" as="geometry" />
        </mxCell>
        <mxCell id="tw4gPYHvXtGm7aBOc0MK-17" style="edgeStyle=orthogonalEdgeStyle;rounded=0;orthogonalLoop=1;jettySize=auto;html=1;entryX=1;entryY=0.5;entryDx=0;entryDy=0;" parent="1" source="tw4gPYHvXtGm7aBOc0MK-6" target="tw4gPYHvXtGm7aBOc0MK-8" edge="1">
          <mxGeometry relative="1" as="geometry" />
        </mxCell>
        <mxCell id="tw4gPYHvXtGm7aBOc0MK-6" value="tiene" style="rhombus;whiteSpace=wrap;html=1;fillColor=#f5f5f5;strokeColor=#666666;fontColor=#333333;" parent="1" vertex="1">
          <mxGeometry x="-410" y="660" width="80" height="80" as="geometry" />
        </mxCell>
        <mxCell id="tw4gPYHvXtGm7aBOc0MK-43" style="edgeStyle=orthogonalEdgeStyle;rounded=0;orthogonalLoop=1;jettySize=auto;html=1;entryX=0;entryY=0.5;entryDx=0;entryDy=0;" parent="1" source="tw4gPYHvXtGm7aBOc0MK-8" target="tw4gPYHvXtGm7aBOc0MK-41" edge="1">
          <mxGeometry relative="1" as="geometry">
            <Array as="points">
              <mxPoint x="-570" y="780" />
            </Array>
          </mxGeometry>
        </mxCell>
        <mxCell id="tw4gPYHvXtGm7aBOc0MK-48" style="edgeStyle=orthogonalEdgeStyle;rounded=0;orthogonalLoop=1;jettySize=auto;html=1;exitX=0.25;exitY=1;exitDx=0;exitDy=0;entryX=0;entryY=0.5;entryDx=0;entryDy=0;" parent="1" source="tw4gPYHvXtGm7aBOc0MK-8" target="tw4gPYHvXtGm7aBOc0MK-47" edge="1">
          <mxGeometry relative="1" as="geometry" />
        </mxCell>
        <mxCell id="tw4gPYHvXtGm7aBOc0MK-8" value="profesores" style="rounded=0;whiteSpace=wrap;html=1;fillColor=#f5f5f5;strokeColor=#666666;fontColor=#333333;" parent="1" vertex="1">
          <mxGeometry x="-660" y="660" width="180" height="80" as="geometry" />
        </mxCell>
        <mxCell id="tw4gPYHvXtGm7aBOc0MK-14" style="edgeStyle=orthogonalEdgeStyle;rounded=0;orthogonalLoop=1;jettySize=auto;html=1;entryX=1;entryY=0.5;entryDx=0;entryDy=0;" parent="1" source="tw4gPYHvXtGm7aBOc0MK-9" target="tw4gPYHvXtGm7aBOc0MK-5" edge="1">
          <mxGeometry relative="1" as="geometry" />
        </mxCell>
        <mxCell id="tw4gPYHvXtGm7aBOc0MK-9" value="tiene" style="rhombus;whiteSpace=wrap;html=1;fillColor=#f5f5f5;strokeColor=#666666;fontColor=#333333;" parent="1" vertex="1">
          <mxGeometry x="-400" y="340" width="80" height="80" as="geometry" />
        </mxCell>
        <mxCell id="tw4gPYHvXtGm7aBOc0MK-39" style="edgeStyle=orthogonalEdgeStyle;rounded=0;orthogonalLoop=1;jettySize=auto;html=1;entryX=1;entryY=0.5;entryDx=0;entryDy=0;" parent="1" source="tw4gPYHvXtGm7aBOc0MK-10" target="tw4gPYHvXtGm7aBOc0MK-38" edge="1">
          <mxGeometry relative="1" as="geometry">
            <mxPoint x="310" y="220" as="targetPoint" />
            <Array as="points">
              <mxPoint x="310" y="780" />
              <mxPoint x="310" y="220" />
            </Array>
          </mxGeometry>
        </mxCell>
        <mxCell id="tw4gPYHvXtGm7aBOc0MK-10" value="Sucursales" style="rounded=0;whiteSpace=wrap;html=1;fillColor=#f5f5f5;strokeColor=#666666;fontColor=#333333;" parent="1" vertex="1">
          <mxGeometry x="100" y="740" width="180" height="80" as="geometry" />
        </mxCell>
        <mxCell id="tw4gPYHvXtGm7aBOc0MK-21" style="edgeStyle=orthogonalEdgeStyle;rounded=0;orthogonalLoop=1;jettySize=auto;html=1;entryX=0;entryY=0.5;entryDx=0;entryDy=0;" parent="1" source="tw4gPYHvXtGm7aBOc0MK-11" target="tw4gPYHvXtGm7aBOc0MK-20" edge="1">
          <mxGeometry relative="1" as="geometry" />
        </mxCell>
        <mxCell id="tw4gPYHvXtGm7aBOc0MK-11" value="disponen" style="rhombus;whiteSpace=wrap;html=1;fillColor=#f5f5f5;strokeColor=#666666;fontColor=#333333;" parent="1" vertex="1">
          <mxGeometry x="-40" y="580" width="80" height="80" as="geometry" />
        </mxCell>
        <mxCell id="tw4gPYHvXtGm7aBOc0MK-22" style="edgeStyle=orthogonalEdgeStyle;rounded=0;orthogonalLoop=1;jettySize=auto;html=1;entryX=0.5;entryY=0;entryDx=0;entryDy=0;" parent="1" source="tw4gPYHvXtGm7aBOc0MK-20" target="tw4gPYHvXtGm7aBOc0MK-10" edge="1">
          <mxGeometry relative="1" as="geometry" />
        </mxCell>
        <mxCell id="tw4gPYHvXtGm7aBOc0MK-20" value="Sucursales/clases" style="rounded=0;whiteSpace=wrap;html=1;fillColor=#f5f5f5;fontColor=#333333;strokeColor=#666666;" parent="1" vertex="1">
          <mxGeometry x="100" y="580" width="180" height="80" as="geometry" />
        </mxCell>
        <mxCell id="tw4gPYHvXtGm7aBOc0MK-25" style="edgeStyle=orthogonalEdgeStyle;rounded=0;orthogonalLoop=1;jettySize=auto;html=1;entryX=0.461;entryY=-0.006;entryDx=0;entryDy=0;entryPerimeter=0;" parent="1" source="tw4gPYHvXtGm7aBOc0MK-23" target="tw4gPYHvXtGm7aBOc0MK-8" edge="1">
          <mxGeometry relative="1" as="geometry" />
        </mxCell>
        <mxCell id="tw4gPYHvXtGm7aBOc0MK-23" value="tipo clase/Profesores" style="rounded=0;whiteSpace=wrap;html=1;fillColor=#f5f5f5;strokeColor=#666666;fontColor=#333333;" parent="1" vertex="1">
          <mxGeometry x="-490" y="490" width="180" height="80" as="geometry" />
        </mxCell>
        <mxCell id="tw4gPYHvXtGm7aBOc0MK-27" style="edgeStyle=orthogonalEdgeStyle;rounded=0;orthogonalLoop=1;jettySize=auto;html=1;entryX=0;entryY=0.5;entryDx=0;entryDy=0;" parent="1" source="tw4gPYHvXtGm7aBOc0MK-24" target="tw4gPYHvXtGm7aBOc0MK-23" edge="1">
          <mxGeometry relative="1" as="geometry" />
        </mxCell>
        <mxCell id="tw4gPYHvXtGm7aBOc0MK-24" value="la da&amp;nbsp;" style="rhombus;whiteSpace=wrap;html=1;fillColor=#f5f5f5;strokeColor=#666666;fontColor=#333333;" parent="1" vertex="1">
          <mxGeometry x="-610" y="490" width="80" height="80" as="geometry" />
        </mxCell>
        <mxCell id="tw4gPYHvXtGm7aBOc0MK-28" value="ejercicios" style="rounded=0;whiteSpace=wrap;html=1;fillColor=#f5f5f5;strokeColor=#666666;fontColor=#333333;" parent="1" vertex="1">
          <mxGeometry x="-470" y="180" width="180" height="80" as="geometry" />
        </mxCell>
        <mxCell id="tw4gPYHvXtGm7aBOc0MK-32" style="edgeStyle=orthogonalEdgeStyle;rounded=0;orthogonalLoop=1;jettySize=auto;html=1;entryX=-0.031;entryY=0.631;entryDx=0;entryDy=0;entryPerimeter=0;" parent="1" source="tw4gPYHvXtGm7aBOc0MK-29" target="tw4gPYHvXtGm7aBOc0MK-28" edge="1">
          <mxGeometry relative="1" as="geometry" />
        </mxCell>
        <mxCell id="tw4gPYHvXtGm7aBOc0MK-29" value="tiene" style="rhombus;whiteSpace=wrap;html=1;fillColor=#f5f5f5;strokeColor=#666666;fontColor=#333333;" parent="1" vertex="1">
          <mxGeometry x="-610" y="190" width="80" height="80" as="geometry" />
        </mxCell>
        <mxCell id="tw4gPYHvXtGm7aBOc0MK-33" value="horario" style="rounded=0;whiteSpace=wrap;html=1;fillColor=#f5f5f5;strokeColor=#666666;fontColor=#333333;" parent="1" vertex="1">
          <mxGeometry x="-60" y="180" width="180" height="80" as="geometry" />
        </mxCell>
        <mxCell id="tw4gPYHvXtGm7aBOc0MK-36" style="edgeStyle=orthogonalEdgeStyle;rounded=0;orthogonalLoop=1;jettySize=auto;html=1;entryX=0;entryY=0.5;entryDx=0;entryDy=0;" parent="1" source="tw4gPYHvXtGm7aBOc0MK-34" target="tw4gPYHvXtGm7aBOc0MK-33" edge="1">
          <mxGeometry relative="1" as="geometry" />
        </mxCell>
        <mxCell id="tw4gPYHvXtGm7aBOc0MK-34" value="se da" style="rhombus;whiteSpace=wrap;html=1;fillColor=#f5f5f5;strokeColor=#666666;fontColor=#333333;" parent="1" vertex="1">
          <mxGeometry x="-210" y="180" width="80" height="80" as="geometry" />
        </mxCell>
        <mxCell id="tw4gPYHvXtGm7aBOc0MK-40" style="edgeStyle=orthogonalEdgeStyle;rounded=0;orthogonalLoop=1;jettySize=auto;html=1;entryX=1;entryY=0.5;entryDx=0;entryDy=0;" parent="1" source="tw4gPYHvXtGm7aBOc0MK-38" target="tw4gPYHvXtGm7aBOc0MK-33" edge="1">
          <mxGeometry relative="1" as="geometry" />
        </mxCell>
        <mxCell id="tw4gPYHvXtGm7aBOc0MK-38" value="tiene &lt;br&gt;distintos" style="rhombus;whiteSpace=wrap;html=1;fillColor=#f5f5f5;strokeColor=#666666;fontColor=#333333;" parent="1" vertex="1">
          <mxGeometry x="210" y="180" width="80" height="80" as="geometry" />
        </mxCell>
        <mxCell id="tw4gPYHvXtGm7aBOc0MK-46" style="edgeStyle=orthogonalEdgeStyle;rounded=0;orthogonalLoop=1;jettySize=auto;html=1;entryX=0;entryY=0.5;entryDx=0;entryDy=0;" parent="1" source="tw4gPYHvXtGm7aBOc0MK-41" target="tw4gPYHvXtGm7aBOc0MK-10" edge="1">
          <mxGeometry relative="1" as="geometry" />
        </mxCell>
        <mxCell id="tw4gPYHvXtGm7aBOc0MK-41" value="trabaja" style="rhombus;whiteSpace=wrap;html=1;fillColor=#f5f5f5;strokeColor=#666666;fontColor=#333333;" parent="1" vertex="1">
          <mxGeometry x="-200" y="740" width="80" height="80" as="geometry" />
        </mxCell>
        <mxCell id="tw4gPYHvXtGm7aBOc0MK-49" style="edgeStyle=orthogonalEdgeStyle;rounded=0;orthogonalLoop=1;jettySize=auto;html=1;entryX=0.5;entryY=0;entryDx=0;entryDy=0;" parent="1" source="tw4gPYHvXtGm7aBOc0MK-47" target="tw4gPYHvXtGm7aBOc0MK-33" edge="1">
          <mxGeometry relative="1" as="geometry">
            <Array as="points">
              <mxPoint x="330" y="880" />
              <mxPoint x="330" y="160" />
              <mxPoint x="30" y="160" />
            </Array>
          </mxGeometry>
        </mxCell>
        <mxCell id="tw4gPYHvXtGm7aBOc0MK-47" value="tiene" style="rhombus;whiteSpace=wrap;html=1;fillColor=#f5f5f5;strokeColor=#666666;fontColor=#333333;" parent="1" vertex="1">
          <mxGeometry x="-200" y="840" width="80" height="80" as="geometry" />
        </mxCell>
        <mxCell id="tw4gPYHvXtGm7aBOc0MK-53" style="edgeStyle=orthogonalEdgeStyle;rounded=0;orthogonalLoop=1;jettySize=auto;html=1;entryX=0;entryY=0.5;entryDx=0;entryDy=0;" parent="1" source="tw4gPYHvXtGm7aBOc0MK-50" target="tw4gPYHvXtGm7aBOc0MK-51" edge="1">
          <mxGeometry relative="1" as="geometry" />
        </mxCell>
        <mxCell id="tw4gPYHvXtGm7aBOc0MK-50" value="usuario" style="rounded=0;whiteSpace=wrap;html=1;fillColor=#f5f5f5;strokeColor=#666666;fontColor=#333333;" parent="1" vertex="1">
          <mxGeometry x="-410" y="980" width="180" height="80" as="geometry" />
        </mxCell>
        <mxCell id="tw4gPYHvXtGm7aBOc0MK-54" style="edgeStyle=orthogonalEdgeStyle;rounded=0;orthogonalLoop=1;jettySize=auto;html=1;entryX=0;entryY=0.5;entryDx=0;entryDy=0;" parent="1" source="tw4gPYHvXtGm7aBOc0MK-51" target="tw4gPYHvXtGm7aBOc0MK-52" edge="1">
          <mxGeometry relative="1" as="geometry" />
        </mxCell>
        <mxCell id="tw4gPYHvXtGm7aBOc0MK-51" value="trabaja" style="rhombus;whiteSpace=wrap;html=1;fillColor=#f5f5f5;strokeColor=#666666;fontColor=#333333;" parent="1" vertex="1">
          <mxGeometry x="-130" y="980" width="80" height="80" as="geometry" />
        </mxCell>
        <mxCell id="tw4gPYHvXtGm7aBOc0MK-55" style="edgeStyle=orthogonalEdgeStyle;rounded=0;orthogonalLoop=1;jettySize=auto;html=1;entryX=0.45;entryY=1.1;entryDx=0;entryDy=0;entryPerimeter=0;" parent="1" source="tw4gPYHvXtGm7aBOc0MK-52" target="tw4gPYHvXtGm7aBOc0MK-10" edge="1">
          <mxGeometry relative="1" as="geometry">
            <mxPoint x="180" y="840" as="targetPoint" />
          </mxGeometry>
        </mxCell>
        <mxCell id="tw4gPYHvXtGm7aBOc0MK-52" value="usuario_sucursal" style="rounded=0;whiteSpace=wrap;html=1;fillColor=#f5f5f5;strokeColor=#666666;fontColor=#333333;" parent="1" vertex="1">
          <mxGeometry x="91" y="980" width="180" height="80" as="geometry" />
        </mxCell>
        <mxCell id="tw4gPYHvXtGm7aBOc0MK-56" value="1:N" style="text;strokeColor=none;align=center;fillColor=none;html=1;verticalAlign=middle;whiteSpace=wrap;rounded=0;" parent="1" vertex="1">
          <mxGeometry x="20" y="410" width="60" height="30" as="geometry" />
        </mxCell>
        <mxCell id="tw4gPYHvXtGm7aBOc0MK-58" style="edgeStyle=orthogonalEdgeStyle;rounded=0;orthogonalLoop=1;jettySize=auto;html=1;exitX=0.5;exitY=0;exitDx=0;exitDy=0;entryX=0.5;entryY=1;entryDx=0;entryDy=0;" parent="1" source="tw4gPYHvXtGm7aBOc0MK-57" target="tw4gPYHvXtGm7aBOc0MK-2" edge="1">
          <mxGeometry relative="1" as="geometry" />
        </mxCell>
        <mxCell id="tw4gPYHvXtGm7aBOc0MK-57" value="id_clase PK" style="ellipse;whiteSpace=wrap;html=1;fillColor=#f5f5f5;strokeColor=#666666;fontColor=#333333;" parent="1" vertex="1">
          <mxGeometry x="-240" y="670" width="100" height="50" as="geometry" />
        </mxCell>
        <mxCell id="tw4gPYHvXtGm7aBOc0MK-60" style="edgeStyle=orthogonalEdgeStyle;rounded=0;orthogonalLoop=1;jettySize=auto;html=1;exitX=0.5;exitY=0;exitDx=0;exitDy=0;entryX=0.5;entryY=1;entryDx=0;entryDy=0;" parent="1" source="tw4gPYHvXtGm7aBOc0MK-59" target="tw4gPYHvXtGm7aBOc0MK-3" edge="1">
          <mxGeometry relative="1" as="geometry" />
        </mxCell>
        <mxCell id="tw4gPYHvXtGm7aBOc0MK-59" value="id_cliente PK" style="ellipse;whiteSpace=wrap;html=1;fillColor=#f5f5f5;strokeColor=#666666;fontColor=#333333;" parent="1" vertex="1">
          <mxGeometry x="120" y="490" width="100" height="50" as="geometry" />
        </mxCell>
        <mxCell id="tw4gPYHvXtGm7aBOc0MK-62" style="edgeStyle=orthogonalEdgeStyle;rounded=0;orthogonalLoop=1;jettySize=auto;html=1;exitX=0.5;exitY=0;exitDx=0;exitDy=0;entryX=0.5;entryY=1;entryDx=0;entryDy=0;" parent="1" source="tw4gPYHvXtGm7aBOc0MK-61" target="tw4gPYHvXtGm7aBOc0MK-33" edge="1">
          <mxGeometry relative="1" as="geometry" />
        </mxCell>
        <mxCell id="tw4gPYHvXtGm7aBOc0MK-61" value="id_horario PK" style="ellipse;whiteSpace=wrap;html=1;fillColor=#f5f5f5;strokeColor=#666666;fontColor=#333333;" parent="1" vertex="1">
          <mxGeometry x="-20" y="270" width="100" height="50" as="geometry" />
        </mxCell>
        <mxCell id="tw4gPYHvXtGm7aBOc0MK-64" style="edgeStyle=orthogonalEdgeStyle;rounded=0;orthogonalLoop=1;jettySize=auto;html=1;exitX=0.5;exitY=1;exitDx=0;exitDy=0;entryX=0.5;entryY=0;entryDx=0;entryDy=0;" parent="1" source="tw4gPYHvXtGm7aBOc0MK-63" target="tw4gPYHvXtGm7aBOc0MK-28" edge="1">
          <mxGeometry relative="1" as="geometry" />
        </mxCell>
        <mxCell id="tw4gPYHvXtGm7aBOc0MK-63" value="id_ejecrcicio PK" style="ellipse;whiteSpace=wrap;html=1;fillColor=#f5f5f5;strokeColor=#666666;fontColor=#333333;" parent="1" vertex="1">
          <mxGeometry x="-430" y="120" width="100" height="50" as="geometry" />
        </mxCell>
        <mxCell id="tw4gPYHvXtGm7aBOc0MK-66" style="edgeStyle=orthogonalEdgeStyle;rounded=0;orthogonalLoop=1;jettySize=auto;html=1;exitX=0.5;exitY=0;exitDx=0;exitDy=0;entryX=0.175;entryY=0.95;entryDx=0;entryDy=0;entryPerimeter=0;" parent="1" source="tw4gPYHvXtGm7aBOc0MK-65" target="tw4gPYHvXtGm7aBOc0MK-5" edge="1">
          <mxGeometry relative="1" as="geometry" />
        </mxCell>
        <mxCell id="tw4gPYHvXtGm7aBOc0MK-65" value="id_tipoClase PK" style="ellipse;whiteSpace=wrap;html=1;fillColor=#f5f5f5;strokeColor=#666666;fontColor=#333333;" parent="1" vertex="1">
          <mxGeometry x="-680" y="430" width="100" height="50" as="geometry" />
        </mxCell>
        <mxCell id="tw4gPYHvXtGm7aBOc0MK-68" style="edgeStyle=orthogonalEdgeStyle;rounded=0;orthogonalLoop=1;jettySize=auto;html=1;exitX=0.5;exitY=1;exitDx=0;exitDy=0;entryX=0.5;entryY=0;entryDx=0;entryDy=0;" parent="1" source="tw4gPYHvXtGm7aBOc0MK-67" target="tw4gPYHvXtGm7aBOc0MK-23" edge="1">
          <mxGeometry relative="1" as="geometry" />
        </mxCell>
        <mxCell id="tw4gPYHvXtGm7aBOc0MK-67" value="id PK" style="ellipse;whiteSpace=wrap;html=1;fillColor=#f5f5f5;strokeColor=#666666;fontColor=#333333;" parent="1" vertex="1">
          <mxGeometry x="-450" y="430" width="100" height="50" as="geometry" />
        </mxCell>
        <mxCell id="tw4gPYHvXtGm7aBOc0MK-71" style="edgeStyle=orthogonalEdgeStyle;rounded=0;orthogonalLoop=1;jettySize=auto;html=1;exitX=0.5;exitY=1;exitDx=0;exitDy=0;entryX=0.089;entryY=0.05;entryDx=0;entryDy=0;entryPerimeter=0;" parent="1" source="tw4gPYHvXtGm7aBOc0MK-69" target="tw4gPYHvXtGm7aBOc0MK-8" edge="1">
          <mxGeometry relative="1" as="geometry" />
        </mxCell>
        <mxCell id="tw4gPYHvXtGm7aBOc0MK-69" value="id_profesor PK&amp;nbsp;" style="ellipse;whiteSpace=wrap;html=1;fillColor=#f5f5f5;strokeColor=#666666;fontColor=#333333;" parent="1" vertex="1">
          <mxGeometry x="-690" y="600" width="100" height="50" as="geometry" />
        </mxCell>
        <mxCell id="tw4gPYHvXtGm7aBOc0MK-75" style="edgeStyle=orthogonalEdgeStyle;rounded=0;orthogonalLoop=1;jettySize=auto;html=1;exitX=1;exitY=0.5;exitDx=0;exitDy=0;entryX=0.25;entryY=1;entryDx=0;entryDy=0;" parent="1" source="tw4gPYHvXtGm7aBOc0MK-74" target="tw4gPYHvXtGm7aBOc0MK-10" edge="1">
          <mxGeometry relative="1" as="geometry" />
        </mxCell>
        <mxCell id="tw4gPYHvXtGm7aBOc0MK-74" value="id_sucursal PK" style="ellipse;whiteSpace=wrap;html=1;fillColor=#f5f5f5;strokeColor=#666666;fontColor=#333333;" parent="1" vertex="1">
          <mxGeometry x="-20" y="820" width="100" height="50" as="geometry" />
        </mxCell>
        <mxCell id="tw4gPYHvXtGm7aBOc0MK-77" style="edgeStyle=orthogonalEdgeStyle;rounded=0;orthogonalLoop=1;jettySize=auto;html=1;" parent="1" source="tw4gPYHvXtGm7aBOc0MK-76" edge="1">
          <mxGeometry relative="1" as="geometry">
            <mxPoint x="160" y="670" as="targetPoint" />
          </mxGeometry>
        </mxCell>
        <mxCell id="tw4gPYHvXtGm7aBOc0MK-76" value="id PK" style="ellipse;whiteSpace=wrap;html=1;fillColor=#f5f5f5;strokeColor=#666666;fontColor=#333333;" parent="1" vertex="1">
          <mxGeometry x="-20" y="675" width="100" height="50" as="geometry" />
        </mxCell>
        <mxCell id="tw4gPYHvXtGm7aBOc0MK-82" style="edgeStyle=orthogonalEdgeStyle;rounded=0;orthogonalLoop=1;jettySize=auto;html=1;exitX=0.5;exitY=0;exitDx=0;exitDy=0;entryX=0.5;entryY=1;entryDx=0;entryDy=0;" parent="1" source="tw4gPYHvXtGm7aBOc0MK-80" target="tw4gPYHvXtGm7aBOc0MK-50" edge="1">
          <mxGeometry relative="1" as="geometry" />
        </mxCell>
        <mxCell id="tw4gPYHvXtGm7aBOc0MK-80" value="id_usuario" style="ellipse;whiteSpace=wrap;html=1;fillColor=#f5f5f5;strokeColor=#666666;fontColor=#333333;" parent="1" vertex="1">
          <mxGeometry x="-370" y="1080" width="100" height="50" as="geometry" />
        </mxCell>
        <mxCell id="tw4gPYHvXtGm7aBOc0MK-81" value="id pk" style="ellipse;whiteSpace=wrap;html=1;fillColor=#f5f5f5;strokeColor=#666666;fontColor=#333333;" parent="1" vertex="1">
          <mxGeometry x="340" y="995" width="100" height="50" as="geometry" />
        </mxCell>
        <mxCell id="tw4gPYHvXtGm7aBOc0MK-84" value="1:N" style="text;strokeColor=none;align=center;fillColor=none;html=1;verticalAlign=middle;whiteSpace=wrap;rounded=0;" parent="1" vertex="1">
          <mxGeometry x="-120" y="190" width="60" height="30" as="geometry" />
        </mxCell>
        <mxCell id="tw4gPYHvXtGm7aBOc0MK-86" value="1:N" style="text;strokeColor=none;align=center;fillColor=none;html=1;verticalAlign=middle;whiteSpace=wrap;rounded=0;" parent="1" vertex="1">
          <mxGeometry x="-540" y="200" width="60" height="30" as="geometry" />
        </mxCell>
        <mxCell id="tw4gPYHvXtGm7aBOc0MK-87" value="N:M" style="text;strokeColor=none;align=center;fillColor=none;html=1;verticalAlign=middle;whiteSpace=wrap;rounded=0;" parent="1" vertex="1">
          <mxGeometry x="-543" y="500" width="60" height="30" as="geometry" />
        </mxCell>
        <mxCell id="tw4gPYHvXtGm7aBOc0MK-88" value="1:1" style="text;strokeColor=none;align=center;fillColor=none;html=1;verticalAlign=middle;whiteSpace=wrap;rounded=0;" parent="1" vertex="1">
          <mxGeometry x="-470" y="660" width="60" height="30" as="geometry" />
        </mxCell>
        <mxCell id="tw4gPYHvXtGm7aBOc0MK-90" value="N:M" style="text;strokeColor=none;align=center;fillColor=none;html=1;verticalAlign=middle;whiteSpace=wrap;rounded=0;" parent="1" vertex="1">
          <mxGeometry x="-60" y="990" width="60" height="30" as="geometry" />
        </mxCell>
        <mxCell id="tw4gPYHvXtGm7aBOc0MK-92" value="N:M" style="text;strokeColor=none;align=center;fillColor=none;html=1;verticalAlign=middle;whiteSpace=wrap;rounded=0;" parent="1" vertex="1">
          <mxGeometry x="40" y="580" width="60" height="30" as="geometry" />
        </mxCell>
        <mxCell id="tw4gPYHvXtGm7aBOc0MK-93" value="1:N" style="text;strokeColor=none;align=center;fillColor=none;html=1;verticalAlign=middle;whiteSpace=wrap;rounded=0;" parent="1" vertex="1">
          <mxGeometry x="50" y="130" width="60" height="30" as="geometry" />
        </mxCell>
        <mxCell id="tw4gPYHvXtGm7aBOc0MK-94" value="Cadena de Gimnasios Cesar Petit" style="text;strokeColor=none;align=center;fillColor=none;html=1;verticalAlign=middle;whiteSpace=wrap;rounded=0;fontSize=50;fontStyle=4;labelBorderColor=none;" parent="1" vertex="1">
          <mxGeometry x="-680" y="20" width="970" height="30" as="geometry" />
        </mxCell>
        <mxCell id="N-i6a7OTqGbGGSYvA12j-1" value="subscripcion temporal" style="rounded=0;whiteSpace=wrap;html=1;fillColor=#f5f5f5;strokeColor=#666666;fontColor=#333333;" vertex="1" parent="1">
          <mxGeometry x="-830" y="980" width="180" height="80" as="geometry" />
        </mxCell>
        <mxCell id="N-i6a7OTqGbGGSYvA12j-2" value="genera" style="rhombus;whiteSpace=wrap;html=1;fillColor=#f5f5f5;strokeColor=#666666;fontColor=#333333;" vertex="1" parent="1">
          <mxGeometry x="-570" y="980" width="80" height="80" as="geometry" />
        </mxCell>
        <mxCell id="N-i6a7OTqGbGGSYvA12j-6" value="id_tipoPagos" style="ellipse;whiteSpace=wrap;html=1;fillColor=#f5f5f5;strokeColor=#666666;fontColor=#333333;" vertex="1" parent="1">
          <mxGeometry x="-140" y="1290" width="100" height="50" as="geometry" />
        </mxCell>
        <mxCell id="N-i6a7OTqGbGGSYvA12j-8" value="factura" style="rounded=0;whiteSpace=wrap;html=1;fillColor=#f5f5f5;strokeColor=#666666;fontColor=#333333;" vertex="1" parent="1">
          <mxGeometry x="-600" y="1170" width="180" height="80" as="geometry" />
        </mxCell>
        <mxCell id="N-i6a7OTqGbGGSYvA12j-9" value="Se genera" style="rhombus;whiteSpace=wrap;html=1;fillColor=#f5f5f5;strokeColor=#666666;fontColor=#333333;" vertex="1" parent="1">
          <mxGeometry x="-780" y="1170" width="80" height="80" as="geometry" />
        </mxCell>
        <mxCell id="N-i6a7OTqGbGGSYvA12j-10" value="" style="endArrow=classic;html=1;rounded=0;exitX=0;exitY=0.5;exitDx=0;exitDy=0;" edge="1" parent="1" source="tw4gPYHvXtGm7aBOc0MK-81">
          <mxGeometry width="50" height="50" relative="1" as="geometry">
            <mxPoint x="220" y="1070" as="sourcePoint" />
            <mxPoint x="270" y="1020" as="targetPoint" />
          </mxGeometry>
        </mxCell>
        <mxCell id="N-i6a7OTqGbGGSYvA12j-11" value="" style="endArrow=classic;html=1;rounded=0;exitX=0;exitY=0.5;exitDx=0;exitDy=0;entryX=1;entryY=0.5;entryDx=0;entryDy=0;" edge="1" parent="1" source="N-i6a7OTqGbGGSYvA12j-2" target="N-i6a7OTqGbGGSYvA12j-1">
          <mxGeometry width="50" height="50" relative="1" as="geometry">
            <mxPoint x="-860" y="710" as="sourcePoint" />
            <mxPoint x="-810" y="660" as="targetPoint" />
            <Array as="points" />
          </mxGeometry>
        </mxCell>
        <mxCell id="N-i6a7OTqGbGGSYvA12j-12" value="" style="endArrow=classic;html=1;rounded=0;exitX=0;exitY=0.5;exitDx=0;exitDy=0;" edge="1" parent="1" source="tw4gPYHvXtGm7aBOc0MK-50">
          <mxGeometry width="50" height="50" relative="1" as="geometry">
            <mxPoint x="-540" y="1070" as="sourcePoint" />
            <mxPoint x="-490" y="1020" as="targetPoint" />
          </mxGeometry>
        </mxCell>
        <mxCell id="N-i6a7OTqGbGGSYvA12j-13" value="" style="endArrow=classic;html=1;rounded=0;exitX=0.5;exitY=1;exitDx=0;exitDy=0;entryX=0.5;entryY=0;entryDx=0;entryDy=0;" edge="1" parent="1" source="N-i6a7OTqGbGGSYvA12j-1" target="N-i6a7OTqGbGGSYvA12j-9">
          <mxGeometry width="50" height="50" relative="1" as="geometry">
            <mxPoint x="-150" y="1080" as="sourcePoint" />
            <mxPoint x="-630" y="1120" as="targetPoint" />
          </mxGeometry>
        </mxCell>
        <mxCell id="N-i6a7OTqGbGGSYvA12j-14" value="" style="endArrow=classic;html=1;rounded=0;exitX=1;exitY=0.5;exitDx=0;exitDy=0;" edge="1" parent="1" source="N-i6a7OTqGbGGSYvA12j-9">
          <mxGeometry width="50" height="50" relative="1" as="geometry">
            <mxPoint x="-650" y="1260" as="sourcePoint" />
            <mxPoint x="-600" y="1210" as="targetPoint" />
          </mxGeometry>
        </mxCell>
        <mxCell id="N-i6a7OTqGbGGSYvA12j-15" value="tipo_pagos" style="rounded=0;whiteSpace=wrap;html=1;fillColor=#f5f5f5;strokeColor=#666666;fontColor=#333333;" vertex="1" parent="1">
          <mxGeometry x="-179" y="1169" width="180" height="80" as="geometry" />
        </mxCell>
        <mxCell id="N-i6a7OTqGbGGSYvA12j-16" value="Se Evalua" style="rhombus;whiteSpace=wrap;html=1;fillColor=#f5f5f5;strokeColor=#666666;fontColor=#333333;" vertex="1" parent="1">
          <mxGeometry x="-340" y="1170" width="80" height="80" as="geometry" />
        </mxCell>
        <mxCell id="N-i6a7OTqGbGGSYvA12j-18" value="" style="endArrow=classic;html=1;rounded=0;exitX=0;exitY=0.5;exitDx=0;exitDy=0;entryX=1;entryY=0.5;entryDx=0;entryDy=0;" edge="1" parent="1" source="N-i6a7OTqGbGGSYvA12j-16" target="N-i6a7OTqGbGGSYvA12j-8">
          <mxGeometry width="50" height="50" relative="1" as="geometry">
            <mxPoint x="-390" y="1250" as="sourcePoint" />
            <mxPoint x="-340" y="1200" as="targetPoint" />
          </mxGeometry>
        </mxCell>
        <mxCell id="N-i6a7OTqGbGGSYvA12j-19" value="" style="endArrow=classic;html=1;rounded=0;exitX=0;exitY=0.5;exitDx=0;exitDy=0;" edge="1" parent="1" source="N-i6a7OTqGbGGSYvA12j-15">
          <mxGeometry width="50" height="50" relative="1" as="geometry">
            <mxPoint x="-310" y="1260" as="sourcePoint" />
            <mxPoint x="-260" y="1210" as="targetPoint" />
          </mxGeometry>
        </mxCell>
        <mxCell id="N-i6a7OTqGbGGSYvA12j-20" value="items Facturables" style="rounded=0;whiteSpace=wrap;html=1;fillColor=#f5f5f5;strokeColor=#666666;fontColor=#333333;" vertex="1" parent="1">
          <mxGeometry x="-830" y="1330" width="180" height="80" as="geometry" />
        </mxCell>
        <mxCell id="N-i6a7OTqGbGGSYvA12j-21" value="Se generan" style="rhombus;whiteSpace=wrap;html=1;fillColor=#f5f5f5;strokeColor=#666666;fontColor=#333333;" vertex="1" parent="1">
          <mxGeometry x="-544" y="1330" width="80" height="80" as="geometry" />
        </mxCell>
        <mxCell id="N-i6a7OTqGbGGSYvA12j-22" value="" style="endArrow=classic;html=1;rounded=0;entryX=0;entryY=0.5;entryDx=0;entryDy=0;exitX=1;exitY=0.5;exitDx=0;exitDy=0;" edge="1" parent="1" source="N-i6a7OTqGbGGSYvA12j-20" target="N-i6a7OTqGbGGSYvA12j-21">
          <mxGeometry width="50" height="50" relative="1" as="geometry">
            <mxPoint x="-630" y="1430" as="sourcePoint" />
            <mxPoint x="-650" y="1370" as="targetPoint" />
          </mxGeometry>
        </mxCell>
        <mxCell id="N-i6a7OTqGbGGSYvA12j-23" value="" style="endArrow=classic;html=1;rounded=0;exitX=0.5;exitY=0;exitDx=0;exitDy=0;" edge="1" parent="1" source="N-i6a7OTqGbGGSYvA12j-21">
          <mxGeometry width="50" height="50" relative="1" as="geometry">
            <mxPoint x="-555" y="1299" as="sourcePoint" />
            <mxPoint x="-505" y="1249" as="targetPoint" />
          </mxGeometry>
        </mxCell>
        <mxCell id="N-i6a7OTqGbGGSYvA12j-24" value="id_temFacturables" style="ellipse;whiteSpace=wrap;html=1;fillColor=#f5f5f5;strokeColor=#666666;fontColor=#333333;" vertex="1" parent="1">
          <mxGeometry x="-810" y="1460" width="140" height="50" as="geometry" />
        </mxCell>
        <mxCell id="N-i6a7OTqGbGGSYvA12j-25" value="id_factura" style="ellipse;whiteSpace=wrap;html=1;fillColor=#f5f5f5;strokeColor=#666666;fontColor=#333333;" vertex="1" parent="1">
          <mxGeometry x="-555" y="1090" width="100" height="50" as="geometry" />
        </mxCell>
        <mxCell id="N-i6a7OTqGbGGSYvA12j-26" value="id" style="ellipse;whiteSpace=wrap;html=1;fillColor=#f5f5f5;strokeColor=#666666;fontColor=#333333;" vertex="1" parent="1">
          <mxGeometry x="-790" y="880" width="100" height="50" as="geometry" />
        </mxCell>
        <mxCell id="N-i6a7OTqGbGGSYvA12j-27" value="" style="endArrow=classic;html=1;rounded=0;entryX=0.5;entryY=0;entryDx=0;entryDy=0;" edge="1" parent="1" target="N-i6a7OTqGbGGSYvA12j-1">
          <mxGeometry width="50" height="50" relative="1" as="geometry">
            <mxPoint x="-740" y="930" as="sourcePoint" />
            <mxPoint x="-690" y="880" as="targetPoint" />
          </mxGeometry>
        </mxCell>
        <mxCell id="N-i6a7OTqGbGGSYvA12j-28" value="" style="endArrow=classic;html=1;rounded=0;exitX=0.5;exitY=0;exitDx=0;exitDy=0;" edge="1" parent="1" source="N-i6a7OTqGbGGSYvA12j-6">
          <mxGeometry width="50" height="50" relative="1" as="geometry">
            <mxPoint x="-140" y="1299" as="sourcePoint" />
            <mxPoint x="-90" y="1249" as="targetPoint" />
          </mxGeometry>
        </mxCell>
        <mxCell id="N-i6a7OTqGbGGSYvA12j-29" value="" style="endArrow=classic;html=1;rounded=0;exitX=0.5;exitY=0;exitDx=0;exitDy=0;" edge="1" parent="1" source="N-i6a7OTqGbGGSYvA12j-24">
          <mxGeometry width="50" height="50" relative="1" as="geometry">
            <mxPoint x="-790" y="1460" as="sourcePoint" />
            <mxPoint x="-740" y="1410" as="targetPoint" />
          </mxGeometry>
        </mxCell>
        <mxCell id="N-i6a7OTqGbGGSYvA12j-30" value="" style="endArrow=classic;html=1;rounded=0;exitX=0.5;exitY=1;exitDx=0;exitDy=0;" edge="1" parent="1" source="N-i6a7OTqGbGGSYvA12j-25">
          <mxGeometry width="50" height="50" relative="1" as="geometry">
            <mxPoint x="-555" y="1219" as="sourcePoint" />
            <mxPoint x="-505" y="1169" as="targetPoint" />
          </mxGeometry>
        </mxCell>
      </root>
    </mxGraphModel>
  </diagram>
</mxfile>
